<svg id="Слой_1" data-name="Слой 1" xmlns="http://www.w3.org/2000/svg" viewBox="0 0 445.86 450.93"><defs><style>.cls-1{fill:#0040bc;stroke:#0040bc;stroke-miterlimit:10;stroke-width:2.37px;}.cls-2{fill:#f0a450;}</style></defs><title>logo</title><polygon class="cls-1" points="213.71 2.63 109.62 2.63 109.62 10.64 157.39 10.64 157.39 209.71 166.5 209.71 166.5 10.64 213.71 10.64 213.71 2.63"/><path class="cls-1" d="M358.27,24.44q-44.46,0-76.2,30.77T250.32,128q0,42.06,31.34,73.49T355.79,233h4.14q43.34,0,74.55-31.31T465.68,128q0-42.32-31.48-73T358.27,24.44Zm69.3,172.25q-29,28.49-69.58,28.48t-69.58-28.48q-29-28.48-29-68.12t29-68q29-28.34,69.72-28.35t69.58,28.35q28.85,28.35,28.85,68T427.57,196.69Z" transform="translate(-21 -23.26)"/><path class="cls-2" d="M84,144.48C74,172.14,51.61,196.55,21,214.89c30.69,18.39,53.09,42.89,63.1,70.65,10-27.74,32.27-52.26,62.95-70.65C116.44,196.55,94.06,172.14,84,144.48Z" transform="translate(-21 -23.26)"/><path class="cls-1" d="M138.62,265.43H130.3V472.5h8.32q43.95,0,70.61-30.37t26.66-73q0-42.66-26.79-73.17T138.62,265.43ZM203,436.06q-24.32,27.89-62.29,27.89h-2.08V273.71h2.08q38,0,62.29,28.16t24.32,67.23Q227.31,408.18,203,436.06Z" transform="translate(-21 -23.26)"/><path class="cls-1" d="M358.27,264.48q-44.46,0-76.2,30.77t-31.75,72.82q0,42.06,31.34,73.49T355.79,473h4.14q43.34,0,74.55-31.31t31.2-73.63q0-42.32-31.48-73T358.27,264.48Zm69.3,172.25q-29,28.49-69.58,28.48t-69.58-28.48q-29-28.48-29-68.12t29-68q29-28.34,69.72-28.35t69.58,28.35q28.85,28.35,28.85,68T427.57,436.72Z" transform="translate(-21 -23.26)"/></svg>